<?xml version="1.0" encoding="UTF-8"?>
<svg width="631px" height="510px" viewBox="0 0 631 510" version="1.1" xmlns="http://www.w3.org/2000/svg" xmlns:xlink="http://www.w3.org/1999/xlink">
    <!-- Generator: Sketch 64 (93537) - https://sketch.com -->
    <title>illustrations/illustration-hero</title>
    <desc>Created with Sketch.</desc>
    <defs>
        <linearGradient x1="0%" y1="55.2944096%" x2="100%" y2="30.13944%" id="linearGradient-1">
            <stop stop-color="#FBFCFF" offset="0%"></stop>
            <stop stop-color="#D1DEFF" offset="100%"></stop>
        </linearGradient>
        <linearGradient x1="61.6476414%" y1="0%" x2="43.7560366%" y2="72.1078453%" id="linearGradient-2">
            <stop stop-color="#FFB171" offset="0%"></stop>
            <stop stop-color="#FF8828" offset="100%"></stop>
        </linearGradient>
        <path d="M58.5536798,1.22325747 C50.6107424,-0.321429799 14.7570921,0.120298953 14.7570921,0.120298953 C7.3499553,-0.0651180543 0.987152571,5.41013709 0.150049319,12.7736463 C-1.1042422,23.8304987 5.91024678,48.5345882 6.15565164,61.1388546 C6.45559092,76.6129945 3.49846233,82.8830887 3.20397649,103.707055 L71.5969482,106.81688 C71.5969482,64.927633 69.7782255,30.2355656 68.1176526,13.6052961 C67.5409512,7.82601163 66.4966172,2.7693081 58.5536798,1.22325747" id="path-3"></path>
        <path d="M18.4489922,-3.55271368e-14 C20.5908313,7.35941915 22.7422139,14.9206156 24.967218,22.3168455 C27.188132,29.7294357 29.458127,37.1352091 32.030788,44.1619683 C32.6538436,45.9479704 33.3327971,47.6099066 33.9913001,49.3250139 L35.0383609,51.735435 L35.1678801,52.038101 L35.2333214,52.1880707 L35.2660421,52.2644189 L35.281039,52.2985029 L35.227868,52.1989776 C34.9170218,51.6427265 34.5789084,51.2678024 34.3621342,51.0496648 C33.8890481,50.5983925 33.7104479,50.5615818 33.6790906,50.5683986 C33.6695471,50.6270231 34.1317263,50.9337792 34.7070643,51.2078146 C35.2864925,51.4886668 36.0049834,51.7722458 36.7711919,52.038101 C38.3104257,52.5670849 40.0364399,53.0469877 41.8006282,53.5214371 C48.924186,55.3374331 56.7089736,56.729424 64.2988006,58.3463694 L64.0561225,67.7985466 C59.9387742,68.3547977 55.9304948,68.6642805 51.8308703,68.7924363 C47.7394259,68.9233189 43.6261677,68.893325 39.3793002,68.5552116 C37.2470046,68.3984252 35.0888052,68.1434768 32.7997232,67.7072015 C31.6517738,67.4904272 30.4711037,67.2300254 29.1881816,66.8523746 C27.9038962,66.4692703 26.5350824,66.0139079 24.830882,65.0541023 C23.9610581,64.5414788 22.9780753,63.9170597 21.8287625,62.7459332 C21.2684214,62.1733218 20.6399123,61.3948431 20.0836613,60.4118603 L19.6201187,59.5474898 L18.0781582,56.6298987 C17.1715236,54.7211942 16.1994476,52.7961294 15.3977917,50.8983318 C13.7085883,47.0768327 12.2416125,43.2880543 10.7760002,39.4856423 C9.39491614,35.6750502 8.02610236,31.8699114 6.77453756,28.0484124 C4.25504764,20.3822372 1.98096258,12.7801399 -1.7656987e-12,4.89446364 L18.4489922,-3.55271368e-14 Z" id="path-5"></path>
        <path d="M4.46028616,4.70662737 C13.8143015,-4.79463088 25.7655183,0.379321634 30.9108402,17.606743 C36.0547988,34.8341643 35.1113535,36.0939093 35.1113535,36.0939093 L9.98871236,45.8378456 C4.06082158,29.4202604 -5.11868363,14.4355668 4.46028616,4.70662737" id="path-7"></path>
    </defs>
    <g id="Page-1" stroke="none" stroke-width="1" fill="none" fill-rule="evenodd">
        <g id="01-new-mn-corona-landing" transform="translate(-731.000000, -139.000000)">
            <g id="01" transform="translate(0.000000, -113.000000)">
                <g id="illustrations/illustration-hero" transform="translate(714.000000, 251.000000)">
                    <g id="big_shadow" style="mix-blend-mode: multiply;" transform="translate(0.388199, 434.122636)" fill-rule="nonzero">
                        <path d="M665.611801,41.0435396 C665.646132,19.50579 509.22761,1.51847107 316.241491,0.893274081 C123.255372,0.26807709 0.638511393,18.1521525 0.611801429,39.6899021 C0.585100191,61.2276517 123.148549,78.211214 316.119408,78.859354 C509.090267,79.507494 665.581275,62.5812892 665.611801,41.0435396 Z" id="Path" fill="#FBFCFF" opacity="0"></path>
                        <path d="M647.611801,41.495176 C647.642324,21.3433626 499.52078,4.50898033 316.773818,3.89378944 C134.026855,3.27859856 16.6423345,20.0267391 16.6118014,40.1728031 C16.5812802,60.3188671 133.923826,76.2448366 316.659341,76.8600275 C499.394856,77.4752184 647.58127,61.64124 647.611801,41.495176 Z" id="Path" fill="#F7F9FF" opacity="0.09"></path>
                        <path d="M628.611801,40.9352128 C628.63852,22.1686295 488.814334,6.48174979 316.306107,5.8934918 C143.79788,5.30523381 31.6385244,20.8883033 31.6118014,39.6433522 C31.585088,58.398401 143.698641,73.2721006 316.206868,73.8603586 C488.715095,74.4486166 628.581266,59.7017962 628.611801,40.9352128 Z" id="Path" fill="#F3F7FF" opacity="0.18"></path>
                        <path d="M609.611801,40.8597546 C609.638476,23.7679511 478.345454,9.43362521 316.360606,8.89238477 C154.375758,8.35114432 47.6346725,22.5088549 47.6118014,39.6177502 C47.5889377,56.7266456 154.272855,70.3203266 316.269137,70.8615671 C478.265418,71.4028075 609.58893,57.96865 609.611801,40.8597546 Z" id="Path" fill="#F0F4FF" opacity="0.27"></path>
                        <path d="M590.611801,41.2997556 C590.63463,25.5701948 467.873423,12.4003301 316.412764,11.891819 C164.952106,11.383308 63.6384401,24.35891 63.6118014,40.0884708 C63.5851732,55.8180316 164.868401,68.3536859 316.329059,68.8621969 C467.789718,69.370708 590.569949,57.0293163 590.611801,41.2997556 Z" id="Path" fill="#ECF1FF" opacity="0.36"></path>
                        <path d="M571.611801,40.2226369 C571.611801,26.1624417 456.934865,14.3518778 315.422702,13.8907034 C173.910539,13.429529 77.6346829,24.9870094 77.6118014,39.0640768 C77.5889281,53.1411441 173.834281,64.372428 315.346444,64.8617228 C456.858607,65.3510176 571.588924,54.2997042 571.611801,40.2226369 Z" id="Path" fill="#E8EEFF" opacity="0.45"></path>
                        <path d="M553.611801,41.1803966 C553.611801,28.2121093 447.228246,17.334181 315.959314,16.8907715 C184.690381,16.447362 93.6423199,27.0603964 93.6118014,40.0286837 C93.5812983,52.996971 184.61029,63.4199728 315.879223,63.8633823 C447.148155,64.3067917 553.588918,54.1486839 553.611801,41.1803966 Z" id="Path" fill="#E4ECFF" opacity="0.55"></path>
                        <path d="M534.611801,39.6211864 C534.630877,28.0406712 436.524215,18.3014579 315.488482,17.8903496 C194.45275,17.4792414 108.63088,26.8826197 108.611801,38.4978764 C108.592729,50.1131331 194.387892,59.4528186 315.423625,59.8639269 C436.459357,60.2750352 534.596541,51.2017016 534.611801,39.6211864 Z" id="Path" fill="#E0E9FF" opacity="0.64"></path>
                        <path d="M516.611801,40.5465133 C516.611801,30.6139219 427.0484,22.2582925 316.532179,21.8895784 C206.015959,21.5208643 125.627029,29.5474872 125.611801,39.474406 C125.596574,49.4013249 205.962663,57.4960181 316.478884,57.8647323 C426.995104,58.2334464 516.596574,50.4847772 516.611801,40.5465133 Z" id="Path" fill="#DCE6FF" opacity="0.73"></path>
                        <path d="M497.611801,40.9723557 C497.611801,32.4296019 416.339051,25.2252129 316.054174,24.8891979 C215.769297,24.5531829 140.627035,31.4158618 140.611801,39.9586156 C140.596573,48.5013694 215.742643,55.5292083 316.023712,55.8652232 C416.304782,56.2012382 497.611801,49.5208047 497.611801,40.9723557 Z" id="Path" fill="#D9E3FF" opacity="0.82"></path>
                        <path d="M478.611801,39.4250203 C478.611801,32.2555482 405.637249,26.1930426 315.599753,25.889057 C225.562257,25.5850714 155.634659,31.2460865 155.611801,38.4212942 C155.588955,45.5965019 225.516553,51.5615027 315.576901,51.8654883 C405.637249,52.169474 478.604184,46.600228 478.611801,39.4250203 Z" id="Path" fill="#D5E1FF" opacity="0.91"></path>
                        <ellipse id="Oval" fill="#D1DEFF" transform="translate(316.233453, 39.829305) rotate(-89.870000) translate(-316.233453, -39.829305) " cx="316.233453" cy="39.8293046" rx="10.3620604" ry="144.602041"></ellipse>
                    </g>
                    <g id="Group-39" transform="translate(163.185185, 236.830286)">
                        <polygon id="Fill-18" fill="#E1E1E1" points="208.031828 10.9663565 222.839285 10.9663565 222.839285 0.221713593 208.031828 0.221713593"></polygon>
                        <path d="M3.17902891,30.4750887 L125.288398,30.4750887 C126.612221,30.4750887 127.696093,29.3912172 127.696093,28.0660309 L127.696093,24.81987 C127.696093,23.4946837 126.612221,22.4108122 125.288398,22.4108122 L3.17902891,22.4108122 C1.85384265,22.4108122 0.769971179,23.4946837 0.769971179,24.81987 L0.769971179,28.0660309 C0.769971179,29.3912172 1.85384265,30.4750887 3.17902891,30.4750887" id="Fill-22" fill="#F5F5F5"></path>
                        <path d="M3.17902891,106.831312 L125.288398,106.831312 C126.612221,106.831312 127.696093,105.74744 127.696093,104.422254 L127.696093,101.177457 C127.696093,99.8522703 126.612221,98.7683988 125.288398,98.7683988 L3.17902891,98.7683988 C1.85384265,98.7683988 0.769971179,99.8522703 0.769971179,101.177457 L0.769971179,104.422254 C0.769971179,105.74744 1.85384265,106.831312 3.17902891,106.831312" id="Fill-23" fill="#F5F5F5"></path>
                    </g>
                    <g id="Group-62" transform="translate(140.558257, 184.942478)">
                        <path d="M392.399512,83.7317109 L14.3696817,83.7317109 C11.8720056,83.7317109 9.8283284,81.6880337 9.8283284,79.1917209 C9.8283284,76.6940447 11.8720056,74.6517309 14.3696817,74.6517309 L392.399512,74.6517309 C394.897188,74.6517309 396.939502,76.6940447 396.939502,79.1917209 C396.939502,81.6880337 394.897188,83.7317109 392.399512,83.7317109" id="Fill-42" fill="#8FACF5"></path>
                        <path d="M392.399512,83.7317109 L303.902428,83.7317109 C301.406115,83.7317109 299.362438,81.6880337 299.362438,79.1917209 C299.362438,76.6940447 301.406115,74.6517309 303.902428,74.6517309 L392.399512,74.6517309 C394.897188,74.6517309 396.939502,76.6940447 396.939502,79.1917209 C396.939502,81.6880337 394.897188,83.7317109 392.399512,83.7317109" id="Fill-44" fill="#4A6AD1"></path>
                        <polygon id="Fill-46" fill="#1A2E35" points="92.0731776 126.752138 382.815225 126.752138 382.815225 95.1112707 92.0731776 95.1112707"></polygon>
                        <polygon id="Fill-48" fill="#3C55B4" points="92.0731776 126.752138 382.815225 126.752138 382.815225 95.1112707 92.0731776 95.1112707"></polygon>
                        <polygon id="Fill-49" fill="#1A2E35" points="378.570539 284.690208 387.278321 284.690208 386.915667 83.7322562 374.867652 83.7322562"></polygon>
                        <polygon id="Fill-50" fill="#4A6AD1" points="378.570539 284.690208 387.278321 284.690208 386.915667 83.7322562 374.867652 83.7322562"></polygon>
                        <polygon id="Fill-51" fill="#1A2E35" points="298.408631 284.690208 289.700849 284.690208 309.386409 83.7322562 321.434424 83.7322562"></polygon>
                        <polygon id="Fill-52" fill="#4A6AD1" points="298.408631 284.690208 289.700849 284.690208 309.386409 83.7322562 321.434424 83.7322562"></polygon>
                        <polygon id="Fill-54" fill="#3C55B4" points="89.0364288 284.690208 97.7442113 284.690208 97.3829208 83.7322562 85.3335421 83.7322562"></polygon>
                        <polygon id="Fill-55" fill="#1A2E35" points="8.87479417 284.690208 0.167011642 284.690208 19.8525717 83.7322562 31.9005871 83.7322562"></polygon>
                        <polygon id="Fill-56" fill="#4A6AD1" points="8.87479417 284.690208 0.167011642 284.690208 19.8525717 83.7322562 31.9005871 83.7322562"></polygon>
                        <polygon id="Fill-57" fill="#030741" fill-rule="nonzero" points="253.736494 74.6514583 233.669193 74.6514583 225.632183 35.4071307 245.698121 35.4071307"></polygon>
                        <path d="M280.367148,66.5645501 L193.290686,66.5645501 C190.403088,66.5645501 188.183538,64.2032099 188.358048,61.3156127 L191.683284,6.19359058 C191.857794,3.30735673 194.362287,0.944653249 197.248521,0.944653249 L284.326346,0.944653249 C287.21258,0.944653249 289.432131,3.30735673 289.25762,6.19359058 L285.932385,61.3156127 C285.757874,64.2032099 283.253381,66.5645501 280.367148,66.5645501" id="Fill-58" fill="#030741" fill-rule="nonzero"></path>
                        <path d="M279.003787,66.5645501 L191.927325,66.5645501 C189.039728,66.5645501 186.820177,64.2032099 186.994688,61.3156127 L190.319923,6.19359058 C190.494434,3.30735673 192.998927,0.944653249 195.88516,0.944653249 L282.962986,0.944653249 C285.84922,0.944653249 288.06877,3.30735673 287.89426,6.19359058 L284.569024,61.3156127 C284.394514,64.2032099 281.890021,66.5645501 279.003787,66.5645501" id="Fill-59" fill="#8FACF5"></path>
                        <path d="M191.927053,63.8378294 C191.291727,63.8378294 190.715025,63.5951512 190.301927,63.1575125 C189.886102,62.7157838 189.677508,62.1199953 189.717046,61.4805793 L193.042281,6.35719382 C193.129536,4.90112497 194.431546,3.67137394 195.886251,3.67137394 L282.962713,3.67137394 C283.596676,3.67137394 284.17474,3.91405208 284.587839,4.35169075 C285.003663,4.7934195 285.210894,5.38920798 285.17272,6.02998734 L281.847484,61.1520095 C281.760229,62.6080783 280.456857,63.8378294 279.003515,63.8378294 L191.927053,63.8378294 Z" id="Fill-60" fill="url(#linearGradient-1)" fill-rule="nonzero"></path>
                        <g id="mn-logo-white-copy-2" transform="translate(223.517078, 22.966460)" fill="#4A6AD1">
                            <g id="mind">
                                <polygon id="Path" transform="translate(12.597562, 11.782903) rotate(2.000000) translate(-12.597562, -11.782903) " points="23.9852488 4.07477034 23.9860585 4.07477034 23.9860585 6.45270597 18.1585893 12.1428151 12.6132269 17.3665326 5.34464038 10.5490551 5.34464038 22.3567406 1.20906526 22.3567406 1.20906526 1.20906526 4.14042469 4.07477034 12.6132269 12.3577736 19.2539802 5.8431346 19.2450112 5.8431346 23.9852488 1.20906526"></polygon>
                                <polygon id="Path-Copy" transform="translate(21.880210, 20.238975) rotate(2.000000) translate(-21.880210, -20.238975) " points="23.9479979 22.3567406 19.8124228 22.3567406 19.8124228 18.1212085 23.9479979 18.1212085"></polygon>
                            </g>
                        </g>
                        <polygon id="Fill-61" fill="#3C55B4" opacity="0.200000003" points="230.162221 0.944789585 235.820166 20.3181401 252.616766 0.944789585"></polygon>
                    </g>
                    <g id="Group-150" transform="translate(185.383006, 108.259438)">
                        <path d="M29.8428673,47.0441121 L38.0393897,53.316933 L49.1998575,61.8679291 C48.7935761,62.3028411 48.2945862,64.4351367 48.1091692,65.9430132 C47.7206115,69.0828321 47.3266004,71.4673493 54.2838282,73.3242461 C55.7726177,73.7223473 57.0323627,74.8907472 57.2614072,76.414984 C57.5395327,78.2637006 56.3997635,80.5582361 49.966066,81.6148404 C42.512575,82.839138 36.5137895,80.7791005 31.7965627,78.5118322 C29.069842,77.2016429 28.9989472,75.5192563 30.2096112,72.7475447 C33.6384625,64.8918624 31.9683461,54.860257 29.8428673,47.0441121" id="Fill-69" fill="#FFC4BE"></path>
                        <path d="M20.4664928,75.2419488 C23.1932135,69.9016663 24.3288927,65.8115853 24.3288927,65.8115853 C24.3288927,65.8115853 45.0642402,64.6759061 51.9083091,66.7209466 C58.7537414,68.7659871 63.0006089,77.6278294 63.0006089,77.6278294 L20.4664928,75.2419488 Z" id="Fill-71" fill="#E77113"></path>
                        <path d="M29.1260124,90.6569189 C28.6133889,92.1838825 28.0516845,94.0530495 27.5227006,95.7777003 L25.9889203,101.085262 C25.0263879,104.638179 24.1102097,108.19246 23.3767218,111.73856 C22.6077866,115.279207 22.007908,118.799403 21.6220771,122.239161 C21.2226125,125.661196 21.0644627,129.032786 21.3180477,132.009002 C21.4080295,133.516878 21.6575244,134.854335 21.9506469,136.032278 C22.0365386,136.306313 22.1019799,136.611706 22.1905983,136.869381 C22.2887603,137.107969 22.3787421,137.352011 22.461907,137.601506 L22.476904,137.64786 C22.4823574,137.66422 22.4987178,137.699668 22.4469101,137.601506 C22.3773787,137.470623 22.2996672,137.343831 22.2165022,137.219765 C22.022905,136.949819 21.9342866,136.821664 21.7734101,136.644427 C21.5075548,136.345851 21.3030507,136.182248 21.1667147,136.084086 C20.8940426,135.897305 20.8572319,135.931389 20.9131297,135.991377 C21.0740062,136.133167 21.5770862,136.444013 22.1933251,136.712595 C22.8095639,136.99072 23.536235,137.267482 24.3051702,137.525157 C25.8512209,138.035054 27.5595114,138.514957 29.3073393,138.97441 C36.3518222,140.753595 44.0207242,142.126499 51.5042091,143.72163 L51.2601676,153.172444 C47.2014439,153.721878 43.2504256,154.032725 39.2094255,154.16088 C35.1766056,154.295853 31.1233353,154.278129 26.9459992,153.95774 C24.8477876,153.809133 22.7250356,153.582816 20.490488,153.172444 C19.3684424,152.970667 18.2164029,152.727989 16.9839252,152.395329 C15.7541741,152.053125 14.4385314,151.652297 12.8802105,150.880635 C12.0840081,150.472991 11.2169109,149.990361 10.195754,149.180525 C9.68585724,148.770154 9.13096958,148.267074 8.55290479,147.594937 C8.24751208,147.22274 7.98847361,146.917347 7.68171753,146.430627 C7.53447461,146.202946 7.3940485,145.972538 7.26180255,145.736677 L7.08729242,145.410834 L6.14384706,143.487132 C5.85890475,142.847716 5.63395029,142.220571 5.38445535,141.582518 C4.48600088,139.060301 3.87657881,136.578985 3.53573872,134.217645 C2.23918303,124.739564 3.24534297,116.297637 4.66187437,108.075211 C5.42126608,103.979676 6.32381063,99.9604899 7.40904546,96.0040181 C7.94211936,94.0230556 8.51745742,92.0570899 9.13914974,90.1006678 C9.76084206,88.107435 10.396168,86.2709886 11.1882803,84.1318762 L29.1260124,90.6569189 Z" id="Fill-73" fill="#FFB4A8"></path>
                        <path d="M16.5072944,73.5483826 C29.3992298,70.1481619 37.0395012,80.6937541 32.6767481,98.1365864 C28.313995,115.578055 26.8592895,116.180661 26.8592895,116.180661 L0.28194292,111.747013 C3.55673447,94.6000297 3.30451281,77.0304049 16.5072944,73.5483826" id="Fill-75" fill="#E77113"></path>
                        <path d="M58.1327308,140.014926 L56.1272277,139.830872 C50.4283815,139.830872 49.4563056,141.393283 45.9483794,144.648988 L44.6422802,151.816173 C53.8449625,156.532037 58.780327,151.363538 58.7816903,151.362174 L67.3081459,151.362174 L64.3046631,144.473114 C63.2139748,141.972712 60.8485446,140.264421 58.1327308,140.014926" id="Fill-77" fill="#CE5B51"></path>
                        <path d="M26.3286697,33.4797673 C28.6463822,45.8999801 29.3716899,53.2989367 36.4816141,58.8382698 C47.1771761,67.1697648 61.9014678,59.2527313 63.3384496,46.3253485 C64.6309152,34.689068 60.6239992,16.3314209 47.7688745,13.0729897 C35.1032568,9.86363943 24.0123204,21.0595546 26.3286697,33.4797673" id="Fill-79" fill="#FFC4BE"></path>
                        <path d="M50.9375966,37.8201613 C59.8008022,37.1084872 57.2117809,27.7749223 54.4673365,25.8130468 C58.6242222,24.2451824 61.4940957,17.6560618 57.4871797,13.1078917 C59.8321595,6.99049384 53.1339701,-0.382558913 41.3681703,0.714946165 C32.77491,1.51660205 31.8001074,6.04841184 31.8001074,6.04841184 C31.8001074,6.04841184 21.4958299,4.96726708 17.2230586,13.4719089 C13.5665261,20.7467997 17.9960839,24.6364668 17.9960839,24.6364668 C17.9960839,24.6364668 10.3094583,26.8723778 12.4267569,36.9503374 C14.7022053,47.7754186 23.0159767,45.2654722 23.0159767,45.2654722 C23.0159767,45.2654722 21.1495364,55.1798286 32.3904424,55.3243448 C42.112565,55.4484106 42.2311774,48.166703 42.2311774,48.166703 C42.2311774,48.166703 54.8586209,46.9260451 50.9375966,37.8201613" id="Fill-81" fill="#030741" fill-rule="nonzero"></path>
                        <path d="M44.3398868,38.543015 C45.4005812,41.4292488 47.5737776,43.6215323 49.7306137,44.7258542 C52.9754113,46.3891538 55.4553637,42.9384887 54.8841158,39.4060221 C54.3687655,36.2266658 51.597054,32.1461282 48.1818363,31.9538944 C44.8184263,31.7643874 43.1278595,35.2423196 44.3398868,38.543015" id="Fill-83" fill="#FFC4BE"></path>
                        <polygon id="Fill-85" fill="#FFC4BE" points="176.513855 345.761136 188.632765 340.844858 180.076316 311.724845 167.957405 316.643849"></polygon>
                        <polygon id="Fill-87" fill="#000000" points="172.104748 330.758855 184.349087 326.267946 180.076316 311.724981 167.957405 316.642622"></polygon>
                        <path d="M187.580933,335.911402 L173.723738,340.733608 C173.220658,340.909481 172.96162,341.392111 173.103409,341.895191 L176.247318,353.09247 C176.573161,354.252689 178.015596,354.957546 179.168999,354.533541 C183.965301,352.770716 185.891729,351.806821 191.818257,349.253247 C195.462519,347.682656 204.162121,343.885697 208.884801,341.101715 C213.503866,338.380448 210.719884,333.724572 208.47034,334.485328 C203.142328,336.282236 194.403188,337.453363 189.96954,335.930489 C189.169247,335.656454 188.318511,335.655091 187.580933,335.911402" id="Fill-89" fill="#030741"></path>
                        <path d="M79.1669269,177.764193 C79.1669269,177.764193 170.773835,186.01525 173.121542,212.373095 C177.894666,265.991331 185.206368,317.692682 185.206368,317.692682 L166.573322,324.509484 C166.573322,324.509484 143.761577,265.60141 144.061516,223.582644 C117.645046,216.126426 48.1722928,227.072846 36.8100477,206.693336 C26.7798056,188.699706 35.58166,175.781867 35.58166,175.781867 L79.1669269,177.764193 Z" id="Fill-91" fill="#030741" fill-rule="nonzero"></path>
                        <polygon id="Fill-93" fill="#030741" points="165.212961 328.74708 188.414627 320.909122 187.401651 310.334899 161.248309 318.763192"></polygon>
                        <path d="M189.905735,336.549182 C192.265711,336.220613 193.866296,335.58665 194.242584,334.813625 C194.39937,334.493235 194.348926,334.134671 194.088524,333.71612 C193.968548,333.522522 193.824032,333.429814 193.630435,333.422997 C192.710167,333.38755 191.0196,335.140831 189.905735,336.549182 M192.700623,336.538276 C191.562217,336.93365 190.219308,337.139517 189.260865,337.241769 C189.140889,337.25404 189.025004,337.195415 188.965016,337.090436 C188.905028,336.986821 188.911845,336.858665 188.981376,336.760503 C189.281316,336.350132 191.941232,332.748134 193.653612,332.814938 C194.05035,332.828572 194.37892,333.030349 194.606601,333.39573 C194.980162,333.998335 195.041513,334.565493 194.789291,335.080843 C194.468902,335.73662 193.656339,336.205616 192.700623,336.538276" id="Fill-95" fill="#4A6AD1"></path>
                        <path d="M189.273408,331.640267 C189.03482,331.723432 188.86031,331.876129 188.744424,332.1079 C188.249524,333.081339 188.85622,335.14683 189.297949,336.30705 C190.054614,335.026854 190.598594,332.645064 190.103695,331.828411 C190.010986,331.671624 189.846019,331.505294 189.409744,331.602093 C189.362027,331.611637 189.317036,331.623907 189.273408,331.640267 M189.327943,337.225954 C189.282952,337.240951 189.233871,337.246405 189.18479,337.239588 C189.081174,337.224591 188.992556,337.157786 188.950292,337.062351 C188.886214,336.915108 187.374247,333.464443 188.201807,331.832501 C188.424035,331.392136 188.788052,331.115373 189.280225,331.006305 C189.871923,330.876785 190.349099,331.058112 190.624498,331.513475 C191.377073,332.759586 190.434991,335.975753 189.461552,337.134609 C189.424741,337.178237 189.37975,337.208231 189.327943,337.225954" id="Fill-97" fill="#4A6AD1"></path>
                        <polygon id="Fill-99" fill="#FFC4BE" points="111.652123 354.419292 124.608136 353.807143 126.728162 323.21879 113.773512 323.830939"></polygon>
                        <path d="M124.904803,351.590046 L110.2405,351.126504 C109.706062,351.10878 109.292964,351.467344 109.243883,351.988148 L108.165465,363.567167 C108.055033,364.768288 109.147085,365.943504 110.376836,365.961228 C115.485347,366.034849 117.933942,365.812622 124.382636,366.015762 C128.350015,366.141191 136.156616,366.730163 141.595061,366.04712 C146.913529,365.376346 146.200492,360.000616 143.835062,359.805656 C138.231651,359.346203 130.722262,355.475623 127.127081,352.46396 C126.479485,351.921343 125.686009,351.61595 124.904803,351.590046" id="Fill-101" fill="#030741"></path>
                        <path d="M126.846229,353.019939 C129.166668,353.558466 130.888592,353.540742 131.517101,352.953134 C131.777503,352.710456 131.859305,352.358709 131.766596,351.873353 C131.724332,351.649762 131.62208,351.512062 131.444843,351.435714 C130.596833,351.071697 128.390916,352.103761 126.846229,353.019939 M129.45979,354.011102 C128.25458,353.972928 126.92803,353.681169 125.995492,353.4344 C125.879606,353.403043 125.792351,353.307608 125.773264,353.188995 C125.75554,353.06902 125.808711,352.950407 125.908237,352.884966 C126.334968,352.608204 130.10875,350.20051 131.683431,350.876736 C132.048812,351.032159 132.284673,351.337552 132.365111,351.760194 C132.497357,352.456871 132.351478,353.007669 131.931563,353.398953 C131.397125,353.896579 130.47004,354.042459 129.45979,354.011102" id="Fill-103" fill="#4A6AD1"></path>
                        <path d="M128.015583,348.209594 C127.763361,348.201414 127.545223,348.283216 127.354353,348.456363 C126.543154,349.188487 126.368643,351.334416 126.365917,352.575074 C127.530226,351.652079 128.892223,349.623399 128.723167,348.684044 C128.691809,348.505444 128.597738,348.290033 128.157372,348.223228 C128.108291,348.215048 128.060574,348.210958 128.015583,348.209594 M126.064614,353.443535 C126.016896,353.442171 125.969179,353.429901 125.925551,353.406724 C125.834206,353.354916 125.775582,353.260845 125.770128,353.155866 C125.763311,352.996353 125.588801,349.232115 126.945345,348.006454 C127.312089,347.673794 127.749727,347.547001 128.248717,347.620623 C128.847233,347.713331 129.228973,348.052808 129.321682,348.577702 C129.577994,350.010593 127.545223,352.673236 126.221401,353.406724 C126.17232,353.433991 126.119148,353.446262 126.064614,353.443535" id="Fill-105" fill="#4A6AD1"></path>
                        <polygon id="Fill-107" fill="#000000" points="113.76983 323.840892 126.729934 323.227379 125.51109 340.719293 112.594614 340.696116"></polygon>
                        <path d="M48.7468128,176.380927 C48.7468128,176.380927 147.450012,191.461056 145.882147,214.191 C143.061355,255.105444 129.344586,335.028354 129.344586,335.028354 L109.905795,335.302389 C109.905795,335.302389 105.312634,253.312625 112.594341,223.431856 C88.3251637,223.431856 19.8285765,222.582483 10.4786513,210.100919 C0.151196662,196.315982 10.7745005,174.65355 10.7745005,174.65355 L48.7468128,176.380927 Z" id="Fill-109" fill="#030741" fill-rule="nonzero"></path>
                        <polygon id="Fill-111" fill="#030741" points="107.613168 336.826081 131.142041 336.459337 132.29817 324.021401 106.481579 325.035741"></polygon>
                        <path d="M66.1242038,72.1704343 C58.1812664,70.625747 22.327616,71.0674757 22.327616,71.0674757 C14.9204793,70.8820587 8.55767655,76.3573139 7.7205733,83.7208231 C6.46628178,94.7776755 13.4807708,119.481765 13.7261756,132.086031 C14.0261149,147.560171 11.0689863,153.830266 10.7745005,174.654231 L79.1674722,177.764056 C79.1674722,135.87481 77.3487495,101.182742 75.6881766,84.5524729 C75.1114752,78.7731884 74.0671412,73.7164849 66.1242038,72.1704343" id="Fill-113" fill="#007CFF"></path>
                        <g id="Path" transform="translate(7.570524, 70.947177)">
                            <mask id="mask-4" fill="white">
                                <use xlink:href="#path-3"></use>
                            </mask>
                            <use id="Mask" fill="url(#linearGradient-2)" xlink:href="#path-3"></use>
                            <path d="M55.2158077,106.808899 C59.7376219,100.847134 66.6811291,104.359684 60.6992682,75.1963288 C53.3754362,39.4904647 61.7765587,33.7325302 58.7039975,20.8822594 C55.6314363,8.03198859 54.3188099,16.4766038 54.3188099,16.4766038 L101.538234,-28.6030974 L87.9156126,106.808899 L55.2158077,106.808899 Z" fill="#B66320" fill-rule="nonzero" opacity="0.200000003" style="mix-blend-mode: multiply;" mask="url(#mask-4)"></path>
                        </g>
                        <g id="Path-2" transform="translate(57.043542, 85.375261)">
                            <mask id="mask-6" fill="white">
                                <use xlink:href="#path-5"></use>
                            </mask>
                            <use id="Mask" fill="#FFCCCD" fill-rule="nonzero" xlink:href="#path-5"></use>
                            <path d="M13.8828461,29.6097563 C21.2582691,49.5718637 27.6184665,59.8241171 32.9634383,60.3665165 C38.3084101,60.908916 48.0361307,63.595267 62.1466,68.4255696 L42.6660893,73.670676 L18.8888415,64.9393749 L5.95706669,30.8053997 L13.8828461,29.6097563 Z" fill="#FFE2D1" fill-rule="nonzero" style="mix-blend-mode: multiply;" mask="url(#mask-6)"></path>
                        </g>
                        <g id="Path-3" transform="translate(51.605454, 73.068990)">
                            <mask id="mask-8" fill="white">
                                <use xlink:href="#path-7"></use>
                            </mask>
                            <use id="Mask" fill="#FF8C2F" xlink:href="#path-7"></use>
                            <path d="M19.3209343,41.9160269 C16.9087727,37.1758408 13.8964212,31.8460419 10.2838799,25.9266303 C5.11219926,17.4524557 1.17049764,4.55883911 12.6411299,-1.50651962 C4.85059672,-2.51086603 0.603138451,0.961721915 -0.101244887,8.91124422 L-2.14814815,28.1324427 L10.2838799,53.528765 L19.3209343,41.9160269 Z" fill="#B66320" fill-rule="nonzero" opacity="0.200000003" style="mix-blend-mode: multiply;" mask="url(#mask-8)"></path>
                        </g>
                        <path d="M127.971683,140.014926 L125.966179,139.830872 C120.267333,139.830872 119.293894,141.393283 115.787331,144.648988 L114.481232,151.816173 C123.683914,156.532037 128.619279,151.363538 128.620642,151.362174 L137.147098,151.362174 L134.143615,144.473114 C133.052927,141.972712 130.687496,140.264421 127.971683,140.014926" id="Fill-121" fill="#FFCCCD" fill-rule="nonzero"></path>
                        <path d="M13.7715755,228.404304 L101.138433,228.404304 C103.048501,228.404304 104.612275,226.84053 104.612275,224.929099 L104.612275,219.312054 C104.612275,217.401986 103.048501,215.838212 101.138433,215.838212 L13.7715755,215.838212 C11.8615077,215.838212 10.2977334,217.401986 10.2977334,219.312054 L10.2977334,224.929099 C10.2977334,226.84053 11.8615077,228.404304 13.7715755,228.404304" id="Fill-123" fill="#4A6AD1"></path>
                        <polygon id="Fill-125" fill="#007CFF" points="14.166132 368.371104 10.2969153 368.371104 14.7510136 228.40444 20.1035663 228.40444"></polygon>
                        <polygon id="Fill-127" fill="#8FACF5" points="14.166132 368.371104 10.2969153 368.371104 14.7510136 228.40444 20.1035663 228.40444"></polygon>
                        <polygon id="Fill-129" fill="#007CFF" points="49.7813307 368.371104 53.6505473 368.371104 49.1964491 228.40444 43.8438964 228.40444"></polygon>
                        <polygon id="Fill-131" fill="#8FACF5" points="49.7813307 368.371104 53.6505473 368.371104 49.1964491 228.40444 43.8438964 228.40444"></polygon>
                        <polygon id="Fill-133" fill="#007CFF" points="65.1284054 368.371104 61.2591887 368.371104 65.713287 228.40444 71.0658397 228.40444"></polygon>
                        <polygon id="Fill-135" fill="#8FACF5" points="65.1284054 368.371104 61.2591887 368.371104 65.713287 228.40444 71.0658397 228.40444"></polygon>
                        <polygon id="Fill-137" fill="#007CFF" points="100.74374 368.371104 104.612957 368.371104 100.158859 228.40444 94.8063061 228.40444"></polygon>
                        <polygon id="Fill-139" fill="#8FACF5" points="100.74374 368.371104 104.612957 368.371104 100.158859 228.40444 94.8063061 228.40444"></polygon>
                        <g id="Group-149" transform="translate(13.633603, 227.681178)" fill="#4A6AD1">
                            <polygon id="Fill-141" points="1.11372907 0.717809222 6.47309859 0.717809222 6.22360364 6.66615041 0.922858618 6.66615041"></polygon>
                            <polygon id="Fill-143" points="35.7513983 6.66655942 30.4615602 6.66655942 30.2120653 0.71821823 35.5618913 0.71821823"></polygon>
                            <polygon id="Fill-145" points="57.4303275 0.717809222 57.1808326 6.66615041 51.8909945 6.66615041 52.0805015 0.717809222"></polygon>
                            <polygon id="Fill-147" points="86.7188525 6.66655942 81.4194708 6.66655942 81.1686125 0.71821823 86.5293454 0.71821823"></polygon>
                        </g>
                    </g>
                    <g id="Group-224" transform="translate(303.704782, 0.219111)">
                        <path d="M12.4890532,165.368267 C5.25097315,165.368267 -0.312900426,159.447193 0.123374885,152.209113 L8.4603234,14.0080013 C8.89659871,6.77128463 15.1762365,0.848847286 22.4143165,0.848847286 L240.729209,0.848847286 C247.967289,0.848847286 253.532526,6.77128463 253.09625,14.0080013 L244.759302,152.209113 C244.321663,159.447193 238.043389,165.368267 230.805309,165.368267 L12.4890532,165.368267 Z" id="Fill-151" fill="#8FACF5"></path>
                        <polygon id="Fill-153" fill="#8FACF5" points="41.7117279 136.14382 61.8526503 205.046688 121.595101 136.14382"></polygon>
                        <path d="M76.3589738,109.758025 C72.3016134,109.758025 69.182245,106.43688 69.4262865,102.380883 L74.0998857,24.9120211 C74.3452906,20.8546607 77.8641236,17.5335149 81.921484,17.5335149 L225.78228,17.5335149 C229.838277,17.5335149 232.957646,20.8546607 232.713604,24.9120211 L228.040005,102.380883 C227.795963,106.43688 224.275767,109.758025 220.218407,109.758025 L76.3589738,109.758025 Z" id="Fill-155" fill="#FFFFFF" opacity="0.200000003"></path>
                        <path d="M32.3634387,148.541359 C28.3060783,148.541359 25.1867098,145.221576 25.4307513,141.164216 L30.1043506,58.3263471 C30.3497554,54.2676233 33.8685885,50.9478409 37.9259489,50.9478409 L181.786745,50.9478409 C185.844105,50.9478409 188.962111,54.2676233 188.718069,58.3263471 L184.04447,141.164216 C183.800428,145.221576 180.280232,148.541359 176.222871,148.541359 L32.3634387,148.541359 Z" id="Fill-157" fill="#FFFFFF" opacity="0.200000003"></path>
                        <g id="Group-165" transform="translate(22.270482, 8.515023)" fill="#FFFFFF">
                            <path d="M8.47151218,4.35920837 C8.31063566,6.59784606 6.55871762,8.41384204 4.55730463,8.41384204 C2.557255,8.41384204 1.06573878,6.59784606 1.2266153,4.35920837 C1.38612846,2.11920732 3.13940987,0.304574701 5.1394595,0.304574701 C7.14087248,0.304574701 8.6323887,2.11920732 8.47151218,4.35920837" id="Fill-159"></path>
                            <path d="M21.8662549,4.35920837 C21.7053784,6.59784606 19.9534603,8.41384204 17.9520474,8.41384204 C15.9519977,8.41384204 14.4604815,6.59784606 14.621358,4.35920837 C14.7808712,2.11920732 16.5341526,0.304574701 18.5342022,0.304574701 C20.5356152,0.304574701 22.0271314,2.11920732 21.8662549,4.35920837" id="Fill-161"></path>
                            <path d="M35.2608613,4.35920837 C35.0999848,6.59784606 33.3480667,8.41384204 31.3466537,8.41384204 C29.3466041,8.41384204 27.8550879,6.59784606 28.0159644,4.35920837 C28.1754776,2.11920732 29.928759,0.304574701 31.9288086,0.304574701 C33.9302216,0.304574701 35.4217378,2.11920732 35.2608613,4.35920837" id="Fill-163"></path>
                        </g>
                        <path d="M110.958845,83.2896114 C110.033123,85.2623938 109.181023,86.9297835 108.240304,88.706242 C107.320036,90.4499799 106.337053,92.1569071 105.358161,93.8638342 C103.352658,97.2517847 101.285803,100.609741 99.0226251,103.869536 C97.9019429,105.505568 96.7362698,107.119787 95.5637799,108.732642 C94.3258487,110.316867 93.1492687,111.918815 91.8322626,113.467593 C89.3345864,116.616955 86.4783465,119.609531 83.5034942,122.523032 C82.7468292,123.24834 81.9260863,123.947744 81.1407908,124.656691 C80.3500418,125.364275 79.5701996,126.073222 78.663565,126.720819 L76.0390963,128.694964 C76.0390963,128.694964 75.568737,129.038531 75.2388038,129.245762 C74.8897836,129.477533 74.5134961,129.67113 74.138572,129.859274 C73.3846338,130.226018 72.591158,130.500053 71.7867754,130.690924 C70.1739201,131.059031 68.516074,131.063121 66.9291225,130.719554 C65.3435344,130.377351 63.8165708,129.680674 62.5091083,128.66497 C61.8587854,128.155074 61.2616336,127.577009 60.7462833,126.94441 L60.3754493,126.460417 L60.1982125,126.216375 L60.1341346,126.107306 L59.8805495,125.666941 L58.8989301,123.895936 C58.611261,123.319234 58.4013036,122.780707 58.153172,122.221729 C57.1988197,119.998089 56.6030313,117.940778 56.0508703,115.87665 C55.0406203,111.782479 54.4557387,107.834188 54.0590009,103.89135 C53.6827134,99.9321511 53.4741193,96.0942917 53.5477407,92.0641985 C53.5954583,89.4683604 55.7359341,87.4055962 58.3304088,87.4533139 C60.4477074,87.4914879 62.2118957,88.9243797 62.7626933,90.8603514 L62.8063208,91.0185012 C64.7831933,97.9825458 66.8432308,105.243803 69.5004201,111.432096 C70.1821003,112.924975 70.8624171,114.428762 71.6081752,115.572621 C71.7922289,115.850746 71.9694657,116.173863 72.1480659,116.415178 C72.3280295,116.622408 72.4998129,116.831003 72.6647795,117.042323 L72.7847552,117.200473 L72.8133858,117.241374 L72.7479445,117.135032 C72.7002269,117.064137 72.6497825,116.995969 72.5952481,116.929165 C72.3825639,116.659219 72.1344323,116.398817 71.8563068,116.179316 C71.3027825,115.729407 70.6620031,115.415835 70.0007734,115.256321 C69.3381802,115.096808 68.6428665,115.081811 67.9461893,115.227691 C67.5958057,115.295859 67.2495122,115.413108 66.9141256,115.564441 C66.7437055,115.635336 66.5869191,115.734861 66.4260425,115.820753 C66.2869798,115.894374 66.0252146,116.104332 66.1942713,115.955725 L67.9039252,114.296516 C68.4792632,113.775712 69.0355142,113.15402 69.5958554,112.547324 C70.1534697,111.933812 70.7247177,111.359838 71.2727886,110.723148 C75.6396318,105.586006 79.654728,99.7440074 83.4257827,93.6729638 C85.2976765,90.6272167 87.1354862,87.5310254 88.9146715,84.3993867 L91.5473203,79.6848866 L94.0422697,75.0658218 L94.1717889,74.8258703 C96.6394712,70.2558865 102.345134,68.5530494 106.915118,71.022095 C111.318772,73.3997954 113.048876,78.812336 110.958845,83.2896114" id="Fill-168" fill="#3C55B4" fill-rule="nonzero"></path>
                        <path d="M54.8185289,91.4951319 L48.1694205,87.7036268 L55.3161554,80.4001054 C55.3161554,80.4001054 58.3019146,82.5310377 61.1090735,85.6204122 C62.8759885,87.5672908 62.3470047,90.6498485 60.021112,91.7473536 C58.3659925,92.5271957 56.4245674,92.4317605 54.8185289,91.4951319" id="Fill-170" fill="#FFC4BE"></path>
                        <path d="M46.6668611,79.8798471 L50.2729492,77.3017327 C51.2532053,76.6023289 52.6124755,76.8095596 53.3364199,77.772092 L55.3173825,80.4006508 L48.1692842,87.7028088 L45.9238297,82.5765739 C45.5025513,81.6140415 45.8133975,80.4892692 46.6668611,79.8798471" id="Fill-172" fill="#FFC4BE"></path>
                        <path d="M104.537281,70.1637233 C107.457599,69.6538265 108.818233,69.2107344 112.564747,68.9312455 C119.016168,68.4717931 129.625838,68.8985249 136.952537,69.3797911 C141.207585,69.6606433 145.552614,70.2591585 149.015549,70.8290431 L149.139615,70.8494936 C152.958387,71.4780027 155.574676,75.1209015 154.920263,78.9028631 C153.217426,88.7504149 148.21253,105.866041 147.669913,122.027314 C147.307242,132.814513 147.212274,141.274921 147.157176,147.657718 C147.157176,147.657718 91.5803074,148.183082 91.5803074,148.284097 C89.2120651,104.852449 93.4921102,88.0319958 96.6611486,77.1904825 C97.7204796,73.5680341 100.816671,70.8508569 104.537281,70.1637233 Z" id="Fill-174" fill="#FFFFFF"></path>
                        <path d="M150.467255,70.0137537 C146.816176,69.4125117 142.239376,68.7785492 137.751193,68.4786099 C136.969988,68.4213488 136.158789,68.3777212 135.318959,68.3340937 C132.931715,78.2116394 118.71732,94.8091883 114.405011,119.987727 C112.743075,98.9497136 111.456062,76.9546212 113.896477,68.3736312 C112.418595,68.3477273 105.316851,68.8399004 102.366539,69.3497972 C98.4496047,70.0737415 95.1434559,73.1903833 93.7173809,77.3881698 C90.9193233,85.6332192 89.1014896,102.77509 89.4702408,129.217677 C89.5431305,134.444489 88.5052595,142.462847 88.9794499,148.183082 L148.581728,148.183082 C148.985283,142.780085 147.566025,146.836382 149.752855,129.217677 C151.87288,112.138862 154.904993,88.9153815 156.696449,78.5320291 C157.382219,74.5387466 154.624141,70.6967972 150.596775,70.0314773 L150.467255,70.0137537 Z" id="Fill-176" fill="#4A6AD1"></path>
                        <g id="mn-logo-white-copy-3" transform="translate(133.444147, 99.845769) rotate(8.000000) translate(-133.444147, -99.845769) translate(127.464496, 94.198322)" fill="#FFFFFF">
                            <g id="mind">
                                <polygon id="Path" points="11.9303818 1.50108361 11.930806 1.50108361 11.930806 2.74666895 8.8783221 5.72720231 5.9736085 8.46343526 2.16625363 4.89237562 2.16625363 11.0773537 0 11.0773537 4.27279233e-14 6.39151495e-14 1.53547399 1.50108361 5.9736085 5.83979961 9.4520983 2.42736966 9.44740027 2.42736966 11.9303818 0"></polygon>
                                <polygon id="Path-Copy" points="11.9108695 11.0773537 9.74461586 11.0773537 9.74461586 8.85874169 11.9108695 8.85874169"></polygon>
                            </g>
                        </g>
                        <path d="M113.778838,146.632316 C112.915574,137.266629 113.817266,123.235115 113.841807,123.012887 C113.86362,122.812473 114.047674,122.669321 114.243998,122.691134 C114.444412,122.714311 114.587565,122.894275 114.565751,123.093326 C114.541211,123.312827 114.141492,136.14382 114.505509,146.570965 C114.52187,146.771378 114.373263,146.947252 114.172849,146.964976 C114.161942,146.964976 114.152399,146.966339 114.141492,146.966339 C113.954712,146.966339 113.795749,146.815789 113.778838,146.632316 Z" id="Fill-178" fill="#FFFFFF"></path>
                        <path d="M142.389376,130.972258 C142.393847,136.976136 143.163057,142.628558 144.163489,147.657172 C144.163489,147.657172 148.346216,147.188477 148.346216,147.188477 C148.299025,142.31535 148.428672,137.242558 149.105457,132.776093 C152.152641,112.666073 154.771272,90.8108405 155.82158,83.96093 C153.344355,82.3030838 150.25089,83.472847 148.466251,91.6161983 C147.310166,96.8384888 142.377371,115.023817 142.389376,130.972258 Z" id="Fill-180" fill="#030741" opacity="0.200000003"></path>
                        <path d="M121.516162,61.3549721 C121.408457,60.1811189 121.198499,58.9609114 120.929917,57.7557008 L129.774036,50.5407979 L136.269084,45.248233 C134.506259,53.072558 132.549837,64.1206286 137.892847,69.4540942 C137.892847,69.4540942 133.539637,76.6185529 121.39755,75.7405488 C111.142353,74.9988808 113.721831,68.8664859 113.721831,68.8664859 C120.804488,67.3190719 121.516162,63.6457702 121.516162,61.3549721 Z" id="Fill-182" fill="#FFC4BE"></path>
                        <polygon id="Fill-184" fill="#E1E1E1" points="124.480789 73.9338237 122.518914 75.7989006 128.783554 78.1534239 127.969628 75.77027"></polygon>
                        <path d="M129.275182,81.4802958 C129.275182,81.4802958 126.81568,75.2429223 124.480244,73.9340963 C132.653589,71.7377228 136.622331,67.2086397 136.622331,67.2086397 L140.349758,68.6865224 C140.349758,68.6865224 141.523611,75.8482543 129.275182,81.4802958" id="Fill-186" fill="#F5F5F5"></path>
                        <polygon id="Fill-188" fill="#E1E1E1" points="121.040213 73.4571929 122.518096 75.799446 115.918068 76.3693306 117.244618 74.2820259"></polygon>
                        <path d="M112.603875,79.7241514 C112.603875,79.7241514 116.085898,75.8153973 121.040349,73.4567839 C117.454712,72.386546 117.240664,67.4484548 117.240664,67.4484548 L113.766822,68.1124113 C113.766822,68.1124113 107.380842,74.3211543 112.603875,79.7241514" id="Fill-190" fill="#F5F5F5"></path>
                        <path d="M120.930599,57.7548828 C121.197817,58.9614567 121.407775,60.1803009 121.516844,61.3555175 C124.827083,60.7488221 129.234827,57.2995205 129.677919,53.9224769 C129.844249,52.6545518 129.866062,51.4234374 129.773354,50.5413432 L120.930599,57.7548828 Z" id="Fill-192" fill="#FFE2D1" fill-rule="nonzero" style="mix-blend-mode: multiply;"></path>
                        <path d="M110.203952,22.0664717 C107.04232,25.9602289 107.346349,40.0082939 114.037722,40.1759872 C120.730457,40.3436805 115.95597,14.981088 110.203952,22.0664717" id="Fill-194" fill="#030741" fill-rule="nonzero"></path>
                        <path d="M139.042296,32.2969914 C138.370159,42.942109 138.516039,49.199933 133.144399,54.7065454 C125.065125,62.9903229 111.974139,58.2294686 109.46283,47.6320686 C107.202378,38.0926362 108.681624,22.2871998 119.07861,17.9639841 C129.321536,13.7048464 139.714432,21.6518738 139.042296,32.2969914" id="Fill-196" fill="#FFC4BE"></path>
                        <path d="M133.810537,23.4271053 C127.115074,30.073487 135.814676,34.9393201 132.414456,38.518141 C138.728177,41.813383 136.414555,44.2428911 136.414555,44.2428911 C136.414555,44.2428911 135.353861,46.7978284 136.48136,49.8585724 C143.58992,48.0234893 156.800882,24.3923645 142.3888,20.7562824 C133.705558,24.6200456 133.810537,23.4271053 133.810537,23.4271053" id="Fill-198" fill="#030741" fill-rule="nonzero"></path>
                        <path d="M136.545301,28.1988666 C130.202949,29.1845761 122.230018,26.153826 117.287836,23.5975254 C112.345655,21.0412247 111.612167,25.8688837 113.432253,27.3467663 C110.26244,27.4599252 106.236437,24.939072 107.233054,19.3370243 C108.142415,14.224423 114.844695,9.39540067 124.378673,13.7131629 C131.121854,16.7657267 139.442442,12.7465404 142.680423,16.2694635 C145.918404,19.7910233 140.779898,27.5417269 136.545301,28.1988666" id="Fill-200" fill="#030741" fill-rule="nonzero"></path>
                        <path d="M140.862654,21.2676789 C145.123155,20.700521 145.303119,18.025608 144.110179,13.3111079 C148.71152,19.8443307 146.870983,21.8484704 144.100635,23.4272417 C141.090336,22.4047214 140.862654,21.2676789 140.862654,21.2676789" id="Fill-202" fill="#030741" fill-rule="nonzero"></path>
                        <path d="M141.89949,40.4572484 C140.859246,42.7572373 139.010529,44.4314438 137.259975,45.2181028 C134.627326,46.4014995 133.287143,43.9788082 134.00018,41.1225683 C134.642323,38.5539974 136.785525,34.8415672 139.438624,34.8688344 C142.050823,34.8947382 143.089703,37.825963 141.89949,40.4572484" id="Fill-204" fill="#FFC4BE"></path>
                        <path d="M162.69278,86.4200231 C164.058867,89.8297873 165.279075,93.2995394 166.481559,96.782925 C168.796544,103.794687 170.822498,110.937332 172.252663,118.42218 C172.567599,120.318615 172.927526,122.175511 173.149754,124.12648 L173.336534,125.574369 L173.429243,126.29695 L173.475597,126.663694 L173.519225,127.170864 C173.63102,128.5165 173.651471,129.927578 173.500138,131.400008 C173.207015,134.328506 172.144958,137.472415 170.403946,140.032805 C168.680659,142.616373 166.421571,144.504627 164.21429,145.825723 C161.99474,147.160453 159.788823,148.018007 157.640167,148.598798 C155.495601,149.18368 153.415113,149.54497 151.368709,149.722207 C149.327759,149.918531 147.327709,149.951252 145.353563,149.87354 C143.34397,149.791739 141.514341,149.600868 139.376592,149.242304 C136.821654,148.812846 135.098367,146.394245 135.527825,143.839307 C135.853668,141.896519 137.330188,140.43636 139.142094,140.035532 L139.634267,139.927827 C141.050798,139.61698 142.775449,139.235239 144.303776,138.826231 C145.86755,138.409043 147.391787,137.938684 148.832859,137.419244 C151.694552,136.38309 154.293117,135.000642 155.715102,133.597744 C156.422686,132.898341 156.767616,132.256198 156.901225,131.799472 C157.022565,131.323659 156.988481,130.958279 156.914859,130.34204 C156.886229,130.040737 156.812607,129.66854 156.707628,129.251352 L156.219545,127.035891 C155.911426,125.468027 155.451973,123.866078 155.051145,122.28049 C154.197682,119.084774 153.244693,115.872697 152.152641,112.666073 C151.124668,109.449906 149.943998,106.239192 148.764691,103.033932 C147.575841,99.824582 146.321549,96.6302287 145.054987,93.4358754 C143.773429,90.2851496 142.446879,86.9967245 141.183044,84.0205088 L141.123056,83.8787194 C139.091649,79.0974146 141.322107,73.5758052 146.103412,71.5457617 C150.763377,69.5675258 156.564137,71.2833157 158.712793,75.8151255 C160.367912,79.320325 161.336237,82.9707214 162.69278,86.4200231 Z" id="Fill-218" fill="#4A6AD1" fill-rule="nonzero"></path>
                        <path d="M134.988071,143.91661 L128.983832,146.77285 L139.374001,150.46074 C139.374001,150.46074 146.297145,148.256186 142.935098,144.412873 L141.074112,143.829355 C138.073355,142.885909 136.599563,142.993615 134.988071,143.91661" id="Fill-220" fill="#FFC4BE"></path>
                        <path d="M129.786715,154.148493 L134.352609,155.01559 C135.691429,155.269175 137.042519,154.637939 137.706475,153.449089 L139.373865,150.460603 L128.983696,146.772713 L127.550804,149.616683 C126.604632,151.495394 127.719861,153.757209 129.786715,154.148493" id="Fill-222" fill="#FFC4BE"></path>
                    </g>
                </g>
            </g>
        </g>
    </g>
</svg>