<?xml version="1.0" encoding="UTF-8"?>
<svg width="17px" height="17px" viewBox="0 0 17 17" version="1.1" xmlns="http://www.w3.org/2000/svg" xmlns:xlink="http://www.w3.org/1999/xlink">
    <!-- Generator: Sketch 64 (93537) - https://sketch.com -->
    <title>icons/insta_white</title>
    <desc>Created with Sketch.</desc>
    <g id="Page-1" stroke="none" stroke-width="1" fill="none" fill-rule="evenodd">
        <g id="01-new-mn-corona-landing" transform="translate(-1272.000000, -8331.000000)" fill="#FFFFFF">
            <g id="footer" transform="translate(0.000000, 6879.000000)">
                <g id="sn" transform="translate(1135.000000, 1436.000000)">
                    <path d="M145.499983,17.5315625 C147.769592,17.5315625 148.038405,17.5402002 148.934696,17.581094 C149.763437,17.6189175 150.213506,17.7573897 150.513057,17.8737618 C150.909781,18.0279572 151.192968,18.212182 151.490393,18.5096072 C151.787818,18.8070324 151.972043,19.0902189 152.126204,19.4869433 C152.24261,19.7864942 152.381083,20.2365627 152.418906,21.0652706 C152.4598,21.961595 152.468437,22.230408 152.468437,24.5000169 C152.468437,26.7696257 152.4598,27.0384387 152.418906,27.9347294 C152.381083,28.763471 152.24261,29.2135396 152.126204,29.5130904 C151.972043,29.9098148 151.787818,30.1930014 151.490393,30.4904265 C151.192968,30.7878517 150.909781,30.9720765 150.513057,31.1262382 C150.213506,31.242644 149.763437,31.3811163 148.934696,31.4189397 C148.03854,31.4598336 147.769727,31.4684712 145.499983,31.4684712 C143.230239,31.4684712 142.961426,31.4598336 142.065271,31.4189397 C141.236529,31.3811163 140.78646,31.242644 140.486943,31.1262382 C140.090185,30.9720765 139.806999,30.7878517 139.509573,30.4904265 C139.212148,30.1930014 139.027923,29.9098148 138.873762,29.5130904 C138.757356,29.2135396 138.618884,28.763471 138.58106,27.9347631 C138.540166,27.0384387 138.531529,26.7696257 138.531529,24.5000169 C138.531529,22.230408 138.540166,21.961595 138.58106,21.0653043 C138.618884,20.2365627 138.757356,19.7864942 138.873762,19.4869433 C139.027923,19.0902189 139.212148,18.8070324 139.509573,18.5096072 C139.806999,18.212182 140.090185,18.0279572 140.486943,17.8737618 C140.78646,17.7573897 141.236529,17.6189175 142.065237,17.581094 C142.961561,17.5402002 143.230374,17.5315625 145.499983,17.5315625 M146.46379,16.0008408 C147.916888,16.0039396 148.242977,16.0164034 149.004505,16.0511511 C149.909265,16.0924498 150.527127,16.2361181 151.067823,16.4462559 C151.626773,16.6634792 152.100798,16.9541224 152.573338,17.4266624 C153.045878,17.8992023 153.336521,18.3732269 153.553744,18.932177 C153.763882,19.4728734 153.90755,20.090735 153.948849,20.9954946 C153.990215,21.9020763 154,22.1915386 154,24.5000169 C154,26.8084951 153.990215,27.0979575 153.948849,28.0045391 C153.90755,28.9092988 153.763882,29.5271604 153.553744,30.0678567 C153.336521,30.6268069 153.045878,31.1008314 152.573338,31.5733714 C152.100798,32.0459113 151.626773,32.3365546 151.067823,32.5537779 C150.527127,32.7639156 149.909265,32.9075839 149.004505,32.9488827 C148.097924,32.9902489 147.808461,33 145.499983,33 C143.191505,33 142.902076,32.9902489 141.995461,32.9488827 C141.090701,32.9075839 140.47284,32.7639156 139.932143,32.5537779 C139.373193,32.3365546 138.899169,32.0459113 138.426629,31.5733714 C137.954089,31.1008314 137.663445,30.6267731 137.446222,30.0678567 C137.236084,29.5271604 137.092416,28.9092988 137.051117,28.0045391 C137.01637,27.2430106 137.00393,26.9169213 137.000838,25.4638236 L137.000838,23.5362101 C137.00393,22.0831124 137.01637,21.7570232 137.051117,20.9954946 C137.092416,20.090735 137.236084,19.4728734 137.446222,18.932177 C137.663445,18.3732269 137.954089,17.8992023 138.426629,17.4266624 C138.899169,16.9541224 139.373193,16.6634792 139.932143,16.4462559 C140.47284,16.2361181 141.090701,16.0924498 141.995461,16.0511511 C142.757018,16.0164034 143.083088,16.0039396 144.536179,16.0008408 Z M145.516865,20.1488095 C143.104465,20.1488095 141.14881,22.1044653 141.14881,24.5168651 C141.14881,26.9292649 143.104465,28.8849206 145.516865,28.8849206 C147.929265,28.8849206 149.884921,26.9292649 149.884921,24.5168651 C149.884921,22.1044653 147.929265,20.1488095 145.516865,20.1488095 Z M145.516865,21.6814529 C147.082801,21.6814529 148.352277,22.9509291 148.352277,24.5168651 C148.352277,26.0828011 147.082801,27.3522773 145.516865,27.3522773 C143.950929,27.3522773 142.681453,26.0828011 142.681453,24.5168651 C142.681453,22.9509291 143.950929,21.6814529 145.516865,21.6814529 Z M150.019858,18.9345238 C149.460993,18.9345238 149.007937,19.387547 149.007937,19.9464118 C149.007937,20.5052766 149.460993,20.9583333 150.019858,20.9583333 C150.578723,20.9583333 151.031746,20.5052766 151.031746,19.9464118 C151.031746,19.387547 150.578723,18.9345238 150.019858,18.9345238 Z" id="icons/insta_white"></path>
                </g>
            </g>
        </g>
    </g>
</svg>