<?xml version="1.0" encoding="UTF-8"?>
<svg width="16px" height="16px" viewBox="0 0 16 16" version="1.1" xmlns="http://www.w3.org/2000/svg" xmlns:xlink="http://www.w3.org/1999/xlink">
    <!-- Generator: Sketch 64 (93537) - https://sketch.com -->
    <title>icons/linkedin_white</title>
    <desc>Created with Sketch.</desc>
    <g id="Page-1" stroke="none" stroke-width="1" fill="none" fill-rule="evenodd">
        <g id="01-new-mn-corona-landing" transform="translate(-1212.000000, -8331.000000)" fill="#FFFFFF">
            <g id="footer" transform="translate(0.000000, 6879.000000)">
                <g id="sn" transform="translate(1135.000000, 1436.000000)">
                    <path d="M77.4035748,21.1304905 L80.5221072,21.1304905 L80.5221072,31.9989755 L77.4035748,31.9989755 L77.4035748,21.1304905 Z M78.883349,19.7710334 L78.8607714,19.7710334 C77.7318909,19.7710334 77,18.9401972 77,17.8880779 C77,16.8144449 77.7535278,16 78.9049859,16 C80.0555033,16 80.7629351,16.812396 80.7855127,17.8850045 C80.7855127,18.9371238 80.0555033,19.7710334 78.883349,19.7710334 L78.883349,19.7710334 Z M93,32 L89.4637817,32 L89.4637817,26.3746959 C89.4637817,24.9025483 88.9106303,23.8985786 87.6942615,23.8985786 C86.7638758,23.8985786 86.2464722,24.5757459 86.0056444,25.2303752 C85.915334,25.4639519 85.929445,25.7907543 85.929445,26.1185811 L85.929445,32 L82.4261524,32 C82.4261524,32 82.4713076,22.0361122 82.4261524,21.1304905 L85.929445,21.1304905 L85.929445,22.8362146 C86.1364064,22.0904085 87.2558796,21.0259956 89.042333,21.0259956 C91.2587018,21.0259956 93,22.5903445 93,25.9556922 L93,32 L93,32 Z" id="icons/linkedin_white"></path>
                </g>
            </g>
        </g>
    </g>
</svg>