<?xml version="1.0" encoding="UTF-8"?>
<svg width="164px" height="21px" viewBox="0 0 164 21" version="1.1" xmlns="http://www.w3.org/2000/svg" xmlns:xlink="http://www.w3.org/1999/xlink">
    <!-- Generator: Sketch 64 (93537) - https://sketch.com -->
    <title>logo</title>
    <desc>Created with Sketch.</desc>
    <g id="Page-1" stroke="none" stroke-width="1" fill="none" fill-rule="evenodd">
        <g id="01-new-mn-corona-landing" transform="translate(-135.000000, -50.000000)" fill="#0F0F0F">
            <g id="01" transform="translate(0.000000, -113.000000)">
                <g id="header" transform="translate(135.000000, 144.000000)">
                    <g id="logo" transform="translate(0.000000, 19.000000)">
                        <g id="mind">
                            <polygon id="Path" points="21.5592251 2.71258706 21.5599915 2.71258706 21.5599915 4.96346678 16.0438909 10.3495467 10.7948238 15.2941547 3.91460644 8.84094311 3.91460644 20.01773 0 20.01773 7.72130286e-14 1.15500167e-13 2.77473342 2.71258706 10.7948238 10.5530197 17.0807537 4.38646553 17.072264 4.38646553 21.5592251 0"></polygon>
                            <polygon id="Path" points="32.5410197 0 32.5410197 20.01773 28.5967571 20.01773 28.5967571 0"></polygon>
                            <polygon id="Path" points="39.4660048 2.71258706 39.4660048 0 43.701164 4.30790714 53.609489 14.2932484 53.6385287 0.172711536 57.5834077 0.172711536 57.5834077 20.01773 54.2902108 20.01773 44.7449192 10.422173 39.4635248 5.07522616 39.4635248 2.71258706"></polygon>
                            <path d="M73.6367071,0 C80.1610512,0 84.4018748,4.2037233 84.4018748,10.008865 C84.4018748,15.8140067 80.1610512,20.01773 73.6367071,20.01773 L65.6295576,20.01773 L65.6295576,0 L73.6367071,0 Z M73.2215216,3.51740113 L69.5738202,3.51740113 L69.5738202,16.5003289 L73.2215216,16.5003289 C77.936843,16.5003289 80.368644,13.7836369 80.368644,10.0374618 C80.368644,6.26268981 77.936843,3.51740113 73.2215216,3.51740113 Z" id="Combined-Shape"></path>
                        </g>
                        <g id="now" transform="translate(92.000000, 0.000000)">
                            <polygon id="Path" transform="translate(9.059941, 10.008865) scale(-1, -1) translate(-9.059941, -10.008865) " points="0.00247999189 2.71258706 0.00247999189 0 4.23763919 4.30790714 14.1459642 14.2932484 14.1750038 0.172711536 18.1198828 0.172711536 18.1198828 20.01773 14.8266859 20.01773 5.28139438 10.422173 2.85993451e-13 5.07522616 2.85993451e-13 2.71258706"></polygon>
                            <path d="M34.9338366,-7.10542736e-14 C41.1387412,-7.10542736e-14 45.1553089,4.5793985 45.1553089,10.008865 C45.1553089,15.465753 41.1387412,20.01773 34.9338366,20.01773 C28.728932,20.01773 24.7123643,15.465753 24.7123643,10.008865 C24.7123643,4.5793985 28.728932,-7.10542736e-14 34.9338366,-7.10542736e-14 Z M34.9338366,3.45511504 C30.7787666,3.45511504 28.4796278,6.60859305 28.4796278,10.008865 C28.4796278,13.4365585 30.7787666,16.562615 34.9338366,16.562615 C39.0889067,16.562615 41.4157459,13.4365585 41.4157459,10.008865 C41.4157459,6.60859305 39.0889067,3.45511504 34.9338366,3.45511504 Z" id="Combined-Shape"></path>
                            <polygon id="Path" transform="translate(60.888160, 10.008865) scale(-1, -1) translate(-60.888160, -10.008865) " points="71.667389 2.71258706 71.6681554 2.71258706 71.6681554 4.96346678 66.1520547 10.3495467 60.9029877 15.2941547 54.0227703 8.84094311 54.0227703 20.01773 50.1081639 20.01773 50.1081639 1.15500167e-13 52.8828973 2.71258706 60.9029877 10.5530197 67.1889176 4.38646553 67.1804279 4.38646553 71.667389 0"></polygon>
                        </g>
                    </g>
                </g>
            </g>
        </g>
    </g>
</svg>